<svg xmlns:mydata="http://www.w3.org/2000/svg" mydata:contrastcolor="002d2b" mydata:template="Contrast" mydata:presentation="2.5" mydata:layouttype="undefined" mydata:specialfontid="undefined" mydata:id1="091" mydata:id2="052" mydata:companyname="BestStart Software" mydata:companytagline="Inicie da melhor forma" version="1.1" xmlns="http://www.w3.org/2000/svg" xmlns:xlink="http://www.w3.org/1999/xlink" viewBox="0 0 550 470"><defs><linearGradient x1="148.57193" y1="235" x2="401.42807" y2="235" gradientUnits="userSpaceOnUse" id="color-115849"><stop offset="0" stop-color="#ffffff"/><stop offset="1" stop-color="#ffffff"/></linearGradient></defs><g fill="currentColor" fill-rule="none" stroke="none" stroke-width="1" stroke-linecap="butt" stroke-linejoin="miter" stroke-miterlimit="10" stroke-dasharray="" stroke-dashoffset="0" font-family="none" font-weight="none" font-size="none" text-anchor="none" style="mix-blend-mode: normal"><g data-paper-data="{&quot;isGlobalGroup&quot;:true,&quot;bounds&quot;:{&quot;x&quot;:148.57192593347526,&quot;y&quot;:106,&quot;width&quot;:252.85614813304943,&quot;height&quot;:258}}"><g data-paper-data="{&quot;fillRule&quot;:&quot;evenodd&quot;,&quot;fillRuleOriginal&quot;:&quot;evenodd&quot;,&quot;isIcon&quot;:true,&quot;iconStyle&quot;:&quot;standalone&quot;,&quot;selectedEffects&quot;:{&quot;container&quot;:&quot;&quot;,&quot;transformation&quot;:&quot;&quot;,&quot;pattern&quot;:&quot;&quot;},&quot;bounds&quot;:{&quot;x&quot;:211.35218030475625,&quot;y&quot;:154.57125723491026,&quot;width&quot;:139.87237198439738,&quot;height&quot;:164.03783871151927},&quot;iconType&quot;:&quot;icon&quot;,&quot;rawIconId&quot;:&quot;1154243&quot;,&quot;isDetailed&quot;:false,&quot;suitableAsStandaloneIcon&quot;:true}" fill-rule="evenodd"><path d="M327.27249,165.65521c13.26576,0 23.95207,10.68631 23.95207,23.95207c0,10.31782 -6.44863,19.3459 -16.2137,22.66234v0.18425c-0.18425,0.92124 -0.18425,1.84246 -0.36849,2.7637c-0.92124,7.18562 -1.84246,15.29248 -7.36987,23.21508c-7.00137,9.94932 -18.42466,11.97603 -26.16303,12.52877c-4.97466,0.36849 -9.76507,0.55274 -14.55549,0.73699c-4.79041,0.18425 -9.58083,0.36849 -14.37124,0.73699c-6.08014,0.36849 -12.89727,1.47397 -16.2137,5.5274c-3.68493,4.42192 -4.79041,10.68631 -5.5274,18.05617c3.1322,2.39521 5.5274,5.71165 7.00137,9.39658c5.15891,12.16028 -0.73699,26.16303 -12.89727,31.32193c-12.16028,5.15891 -26.16303,-0.73699 -31.32193,-12.89727c-5.15891,-12.16028 0.73699,-26.16303 12.89727,-31.32193v-71.8562c-5.8959,-2.39521 -10.50206,-7.00137 -12.89727,-12.89727c-5.15891,-12.16028 0.73699,-26.16303 12.89727,-31.32193c12.16028,-5.15891 26.16303,0.73699 31.32193,12.89727c5.15891,12.16028 -0.73699,26.16303 -12.89727,31.32193v42.37673c7.55411,-6.81713 17.87193,-8.47534 26.16303,-9.21233c4.97466,-0.36849 10.31782,-0.55274 14.92398,-0.73699c4.60617,-0.18425 9.39658,-0.36849 14.00274,-0.73699c7.00137,-0.55274 10.87055,-1.84246 12.71302,-4.60617c2.7637,-4.05342 3.31644,-8.47534 4.05342,-14.73973c0,-0.55274 0.18425,-1.28972 0.18425,-2.02671c-8.10686,-4.05342 -13.26576,-12.34453 -13.26576,-21.37261c0,-13.26576 10.68631,-23.95207 23.95207,-23.95207zM240.67655,178.55247c0,-3.1322 -2.39521,-5.5274 -5.5274,-5.5274c-3.1322,0 -5.5274,2.39521 -5.5274,5.5274c0,3.1322 2.39521,5.5274 5.5274,5.5274c3.1322,0 5.5274,-2.39521 5.5274,-5.5274zM332.79989,189.60727c0,-3.1322 -2.39521,-5.5274 -5.5274,-5.5274c-3.1322,0 -5.5274,2.39521 -5.5274,5.5274c0,3.1322 2.39521,5.5274 5.5274,5.5274c3.1322,0 5.5274,-2.39521 5.5274,-5.5274zM229.62176,294.62787c0,3.1322 2.39521,5.5274 5.5274,5.5274c3.1322,0 5.5274,-2.39521 5.5274,-5.5274c0,-3.1322 -2.39521,-5.5274 -5.5274,-5.5274c-3.1322,0 -5.5274,2.39521 -5.5274,5.5274z" data-paper-data="{&quot;isPathIcon&quot;:true}"/></g><g data-paper-data="{&quot;isPrimaryText&quot;:true}" fill-rule="nonzero"><path d="M164.1991,203.1974l-1.27309,4.21506l-14.35409,-4.31276l0.2634,-0.87208l1.12258,-3.71673c0.17272,-0.52184 0.426,-0.98535 0.75986,-1.39054c0.33386,-0.40519 0.71119,-0.72928 1.132,-0.97226c0.42081,-0.24298 0.87263,-0.40107 1.35545,-0.47427c0.48282,-0.0732 0.95956,-0.03872 1.4302,0.10343c0.70597,0.21323 1.28283,0.59138 1.73056,1.13446c0.44774,0.54308 0.73673,1.17415 0.86696,1.89323c0.52194,-0.62783 1.16505,-1.05669 1.92933,-1.28656c0.76428,-0.22988 1.53401,-0.22775 2.30919,0.00638c0.53986,0.16306 1.02068,0.42157 1.44245,0.77554c0.42178,0.35397 0.76068,0.76977 1.01671,1.24739c0.25603,0.47762 0.41607,0.998 0.48012,1.56114c0.06405,0.56314 0.01519,1.13749 -0.14656,1.72306zM150.67557,199.13549l-1.00969,3.34298l5.44013,1.6431l1.12258,-3.71673c0.11159,-0.41946 0.14801,-0.82763 0.10928,-1.22451c-0.03873,-0.39688 -0.1395,-0.76341 -0.30231,-1.09959c-0.16281,-0.33617 -0.38733,-0.63057 -0.67356,-0.88318c-0.28623,-0.25261 -0.61622,-0.43536 -0.98997,-0.54824c-0.34606,-0.10452 -0.70128,-0.12873 -1.06565,-0.07262c-0.36437,0.05611 -0.71086,0.17804 -1.03946,0.36579c-0.3286,0.18775 -0.61889,0.43617 -0.87085,0.74526c-0.25196,0.30909 -0.4545,0.66709 -0.60761,1.074zM163.43364,202.58101c0.11995,-0.44714 0.14952,-0.89515 0.08873,-1.34401c-0.0608,-0.44886 -0.19264,-0.86254 -0.39554,-1.24104c-0.20289,-0.37849 -0.46613,-0.70724 -0.78971,-0.98623c-0.32358,-0.279 -0.69993,-0.4833 -1.12905,-0.61291c-0.41528,-0.12543 -0.83141,-0.16048 -1.24841,-0.10517c-0.417,0.05532 -0.81128,0.18547 -1.18286,0.39045c-0.37157,0.20498 -0.70345,0.4786 -0.99564,0.82085c-0.29219,0.34225 -0.51902,0.73068 -0.68049,1.16528l-1.12258,3.71673l6.33297,1.91277l1.00969,-3.34298z" data-paper-data="{&quot;glyphName&quot;:&quot;B&quot;,&quot;glyphIndex&quot;:0,&quot;firstGlyphOfWord&quot;:true,&quot;word&quot;:1}"/><path d="M164.58173,181.70259l-2.78806,5.99933l5.99933,2.78806l3.26341,-7.02216l0.83528,0.36426l-3.64734,7.8483l-13.60106,-6.29689l3.64734,-7.8483l0.7868,0.36565l-3.26341,7.02216l5.15352,2.39499l2.78806,-5.99933z" data-paper-data="{&quot;glyphName&quot;:&quot;E&quot;,&quot;glyphIndex&quot;:1,&quot;word&quot;:1}"/><path d="M173.92726,175.25838c0.62559,-0.00776 1.22622,-0.16962 1.80186,-0.4856c0.57565,-0.31597 1.07206,-0.79541 1.48924,-1.43831c0.25188,-0.38816 0.43024,-0.80249 0.53507,-1.24298c0.10484,-0.44049 0.13467,-0.865 0.08949,-1.27355c-0.04518,-0.40855 -0.16823,-0.79005 -0.36915,-1.14453c-0.20093,-0.35447 -0.47728,-0.64584 -0.82905,-0.87411c-0.35177,-0.22827 -0.72758,-0.37301 -1.12742,-0.43423c-0.39984,-0.06122 -0.80477,-0.04818 -1.2148,0.03913c-0.41003,0.08731 -0.80212,0.24659 -1.17627,0.47784c-0.37415,0.23125 -0.71143,0.52522 -1.01183,0.8819l-0.03542,0.05459c-0.38698,0.49011 -0.8242,0.8916 -1.31165,1.20448c-0.48745,0.31287 -0.99012,0.52968 -1.50803,0.65041c-0.51791,0.12073 -1.03604,0.1422 -1.5544,0.0644c-0.51836,-0.0778 -0.99589,-0.25838 -1.43257,-0.54175c-0.47308,-0.30698 -0.85089,-0.69435 -1.13344,-1.16212c-0.28255,-0.46777 -0.45828,-0.97396 -0.52721,-1.51858c-0.06892,-0.54462 -0.03481,-1.10857 0.10235,-1.69184c0.13716,-0.58327 0.3789,-1.14177 0.72524,-1.6755c0.44866,-0.69142 0.9714,-1.23134 1.5682,-1.61977c0.59681,-0.38843 1.24556,-0.63111 1.94626,-0.72804l0.08984,0.93742c-0.56069,0.06712 -1.09475,0.25924 -1.6022,0.57637c-0.50745,0.31713 -0.93828,0.74863 -1.29248,1.29448c-0.25975,0.40029 -0.44295,0.82872 -0.54959,1.28527c-0.10664,0.45655 -0.13721,0.90214 -0.09171,1.33675c0.0455,0.43461 0.16781,0.83719 0.36693,1.20773c0.19912,0.37054 0.48063,0.67388 0.84454,0.91001c0.35177,0.22827 0.73561,0.37391 1.15152,0.43694c0.4159,0.06303 0.8328,0.04482 1.2507,-0.05462c0.4179,-0.09944 0.82483,-0.27494 1.22079,-0.52652c0.39596,-0.25158 0.74594,-0.57177 1.04996,-0.96058c0.40337,-0.46224 0.84485,-0.84373 1.32442,-1.14447c0.47958,-0.30074 0.97332,-0.51042 1.48122,-0.62902c0.50791,-0.1186 1.01301,-0.13991 1.5153,-0.06391c0.5023,0.07599 0.96572,0.25174 1.39028,0.52723c0.46095,0.29911 0.82966,0.68058 1.10614,1.14441c0.27648,0.46383 0.45312,0.962 0.52992,1.49448c0.07679,0.53249 0.05055,1.08431 -0.07874,1.65545c-0.12929,0.57114 -0.36316,1.11751 -0.70162,1.63911c-0.48015,0.73994 -1.07272,1.3078 -1.77773,1.70359c-0.70501,0.39579 -1.42638,0.60427 -2.16411,0.62546z" data-paper-data="{&quot;glyphName&quot;:&quot;S&quot;,&quot;glyphIndex&quot;:2,&quot;word&quot;:1}"/><path d="M178.03401,150.27456l10.59218,9.3376l-0.60347,0.68244l-10.59218,-9.3376l-3.24726,3.67217l-0.64994,-0.57474l3.85074,-4.35461l3.2329,-3.65593l0.64994,0.57474z" data-paper-data="{&quot;glyphName&quot;:&quot;T&quot;,&quot;glyphIndex&quot;:3,&quot;word&quot;:1}"/><path d="M196.24521,148.42705c0.6006,0.17523 1.22231,0.19578 1.86513,0.06164c0.64282,-0.13414 1.25758,-0.44775 1.84428,-0.94083c0.35424,-0.29771 0.64579,-0.64191 0.87466,-1.0326c0.22887,-0.39069 0.38135,-0.788 0.45742,-1.19193c0.07607,-0.40393 0.06977,-0.80475 -0.01891,-1.20244c-0.08868,-0.39769 -0.26792,-0.75705 -0.53772,-1.07808c-0.2698,-0.32103 -0.58697,-0.56918 -0.95152,-0.74447c-0.36454,-0.17529 -0.75564,-0.28104 -1.17329,-0.31725c-0.41765,-0.03621 -0.83916,0.00165 -1.26453,0.11359c-0.42537,0.11194 -0.83377,0.29462 -1.22522,0.54806l-0.04981,0.04187c-0.51322,0.35577 -1.0486,0.61212 -1.60616,0.76904c-0.55756,0.15693 -1.10163,0.21752 -1.63222,0.18178c-0.53059,-0.03574 -1.03242,-0.16648 -1.50548,-0.39224c-0.47306,-0.22575 -0.87706,-0.53789 -1.21198,-0.9364c-0.36284,-0.43172 -0.61109,-0.91253 -0.74475,-1.44241c-0.13367,-0.52988 -0.15395,-1.06533 -0.06086,-1.60634c0.09309,-0.54101 0.29037,-1.07043 0.59185,-1.58824c0.30148,-0.51781 0.69575,-0.9814 1.18282,-1.39075c0.63098,-0.5303 1.28858,-0.89408 1.97279,-1.09134c0.68421,-0.19726 1.37555,-0.23995 2.07402,-0.12808l-0.18777,0.92281c-0.55585,-0.09951 -1.12274,-0.07168 -1.70067,0.08348c-0.57793,0.15516 -1.11597,0.44207 -1.61411,0.86072c-0.36531,0.30702 -0.6656,0.66329 -0.9009,1.06881c-0.23529,0.40552 -0.39463,0.82277 -0.478,1.25173c-0.08338,0.42896 -0.08393,0.8497 -0.00167,1.26223c0.08226,0.41253 0.26294,0.78484 0.54205,1.11694c0.2698,0.32103 0.59439,0.57239 0.97377,0.7541c0.37938,0.18171 0.78343,0.28602 1.21216,0.31292c0.42872,0.02691 0.86916,-0.02214 1.32132,-0.14716c0.45216,-0.12501 0.88038,-0.32907 1.28466,-0.61218c0.52075,-0.32433 1.05438,-0.5603 1.60086,-0.70792c0.54649,-0.14762 1.07993,-0.204 1.60034,-0.16915c0.5204,0.03486 1.00972,0.16195 1.46794,0.38128c0.45822,0.21933 0.85015,0.52272 1.17577,0.91017c0.35353,0.42065 0.59481,0.89316 0.72382,1.4175c0.12901,0.52435 0.15251,1.05238 0.07049,1.58409c-0.08202,0.53171 -0.26823,1.05182 -0.55864,1.56033c-0.29041,0.50851 -0.67361,0.96279 -1.14961,1.36284c-0.67526,0.56751 -1.40782,0.93762 -2.19766,1.11033c-0.78985,0.17271 -1.54066,0.16149 -2.25243,-0.03364z" data-paper-data="{&quot;glyphName&quot;:&quot;S&quot;,&quot;glyphIndex&quot;:4,&quot;word&quot;:1}"/><path d="M207.46011,125.72712l7.41182,12.01873l-0.77613,0.47699l-7.41182,-12.01873l-4.17634,2.56666l-0.45428,-0.73918l4.95248,-3.04365l4.15786,-2.5553l0.45428,0.73918z" data-paper-data="{&quot;glyphName&quot;:&quot;T&quot;,&quot;glyphIndex&quot;:5,&quot;word&quot;:1}"/><path d="M230.21055,122.2127l-4.53236,-4.88534l0.26315,6.65127zM224.72395,115.9851l0.70151,-0.29018l10.85996,11.72745l-0.8819,0.36479l-4.54411,-4.85701l-4.87051,2.01465l0.25486,6.63123l-0.8819,0.36479z" data-paper-data="{&quot;glyphName&quot;:&quot;A&quot;,&quot;glyphIndex&quot;:6,&quot;word&quot;:1}"/><path d="M242.01857,117.76416l1.82747,7.30132l-0.88436,0.21864l-3.61828,-14.54468l4.16914,-1.03075c0.57554,-0.14229 1.1359,-0.18029 1.68108,-0.11399c0.54518,0.0663 1.04368,0.2149 1.4955,0.44579c0.45182,0.23089 0.84031,0.53703 1.16548,0.91839c0.32517,0.38137 0.55022,0.82473 0.67516,1.33008c0.12494,0.50535 0.13328,1.00601 0.02502,1.50199c-0.10826,0.49598 -0.30761,0.95489 -0.59804,1.37674c-0.29044,0.42185 -0.66139,0.78913 -1.11287,1.10184c-0.45148,0.31271 -0.96499,0.54021 -1.54053,0.6825l-2.08457,0.51538l8.24964,5.71355l-1.13704,0.28111l-8.2707,-5.70834zM240.4308,111.34199l1.36913,5.5378l3.28478,-0.81211c0.43516,-0.10759 0.83192,-0.28016 1.19026,-0.51771c0.35835,-0.23755 0.65454,-0.51559 0.8886,-0.83413c0.23405,-0.31854 0.39717,-0.66795 0.48934,-1.04823c0.09218,-0.38028 0.08968,-0.76695 -0.0075,-1.16c-0.0937,-0.37901 -0.26994,-0.71528 -0.5287,-1.0088c-0.25876,-0.29352 -0.56677,-0.53017 -0.92403,-0.70997c-0.35726,-0.17979 -0.75063,-0.2948 -1.18012,-0.34502c-0.42949,-0.05022 -0.86182,-0.02153 -1.29698,0.08605l-0.04211,0.01041z" data-paper-data="{&quot;glyphName&quot;:&quot;R&quot;,&quot;glyphIndex&quot;:7,&quot;word&quot;:1}"/><path d="M262.93958,107.33246l1.37816,14.05296l-0.90678,0.08752l-1.37816,-14.05296l-4.87932,0.47095l-0.08335,-0.8636l5.7861,-0.55847l4.85773,-0.46886l0.08335,0.8636z" data-paper-data="{&quot;glyphName&quot;:&quot;T&quot;,&quot;glyphIndex&quot;:8,&quot;lastGlyphOfWord&quot;:true,&quot;word&quot;:1}"/><path d="M289.32575,119.23864c0.26474,0.56687 0.65962,1.04751 1.18465,1.44192c0.52502,0.39441 1.16637,0.64929 1.92402,0.76464c0.45745,0.06965 0.90847,0.06152 1.35303,-0.02438c0.44457,-0.0859 0.84369,-0.23356 1.19737,-0.443c0.35368,-0.20944 0.65064,-0.4787 0.89089,-0.80779c0.24025,-0.32909 0.39194,-0.70092 0.45505,-1.11549c0.06312,-0.41457 0.04023,-0.81663 -0.06867,-1.2062c-0.1089,-0.38956 -0.28757,-0.75318 -0.53601,-1.09085c-0.24844,-0.33767 -0.55508,-0.62936 -0.91991,-0.87505c-0.36483,-0.24569 -0.77162,-0.43195 -1.22037,-0.55878l-0.06433,-0.00979c-0.606,-0.15077 -1.15193,-0.38381 -1.63781,-0.69912c-0.48587,-0.31531 -0.89047,-0.68408 -1.2138,-1.10629c-0.32333,-0.42221 -0.5563,-0.88551 -0.69891,-1.38991c-0.14261,-0.5044 -0.17474,-1.01391 -0.09639,-1.52855c0.08488,-0.55752 0.28226,-1.06135 0.59213,-1.51148c0.30987,-0.45013 0.69876,-0.81876 1.16665,-1.10588c0.46789,-0.28712 0.99583,-0.48831 1.58382,-0.60357c0.58799,-0.11526 1.19649,-0.125 1.82549,-0.02924c0.81484,0.12406 1.52214,0.37801 2.12191,0.76186c0.59977,0.38385 1.08811,0.87506 1.46504,1.47364l-0.81721,0.46797c-0.29209,-0.48327 -0.68714,-0.8908 -1.18513,-1.22259c-0.49799,-0.33179 -1.06864,-0.54665 -1.71193,-0.64459c-0.47175,-0.07182 -0.9376,-0.0623 -1.39755,0.02857c-0.45995,0.09087 -0.87858,0.24654 -1.25587,0.467c-0.3773,0.22047 -0.69376,0.49773 -0.9494,0.8318c-0.25564,0.33406 -0.4161,0.71553 -0.48139,1.14439c-0.06312,0.41457 -0.03774,0.82433 0.07613,1.22927c0.11387,0.40495 0.30217,0.77734 0.56491,1.11719c0.26274,0.33985 0.59027,0.63837 0.9826,0.89556c0.39233,0.25719 0.82826,0.44423 1.30777,0.56112c0.58735,0.17718 1.11681,0.42234 1.58839,0.73548c0.47158,0.31314 0.866,0.67669 1.18327,1.09067c0.31727,0.41397 0.54473,0.86547 0.68236,1.35448c0.13764,0.48901 0.16837,0.98369 0.0922,1.48403c-0.0827,0.54323 -0.27845,1.03633 -0.58723,1.47932c-0.30879,0.44299 -0.68998,0.80913 -1.14357,1.09843c-0.45359,0.2893 -0.96724,0.49266 -1.54094,0.6101c-0.5737,0.11743 -1.1679,0.12935 -1.7826,0.03577c-0.87202,-0.13276 -1.63355,-0.43885 -2.28459,-0.91827c-0.65104,-0.47941 -1.13814,-1.05088 -1.46129,-1.71441z" data-paper-data="{&quot;glyphName&quot;:&quot;S&quot;,&quot;glyphIndex&quot;:9,&quot;firstGlyphOfWord&quot;:true,&quot;word&quot;:2}"/><path d="M317.83424,115.90604c-0.31034,-0.69128 -0.75218,-1.29177 -1.32551,-1.80146c-0.57334,-0.50969 -1.23878,-0.88563 -1.99631,-1.12782c-0.77131,-0.24659 -1.5507,-0.31359 -2.33816,-0.20099c-0.78746,0.1126 -1.52738,0.37323 -2.21973,0.7819c-0.69236,0.40867 -1.30645,0.95243 -1.84228,1.63127c-0.53583,0.67884 -0.94465,1.45901 -1.22647,2.34051c-0.28622,0.89527 -0.4091,1.77824 -0.36865,2.64891c0.04045,0.87067 0.21957,1.67561 0.53736,2.41481c0.31779,0.73921 0.76363,1.38652 1.33753,1.94193c0.5739,0.55542 1.25339,0.95862 2.03848,1.20961c0.79886,0.2554 1.60001,0.32555 2.40345,0.21048c0.80344,-0.11508 1.549,-0.3815 2.23667,-0.79926c0.68767,-0.41776 1.30052,-0.9695 1.83855,-1.65523c0.53803,-0.68573 0.95016,-1.47623 1.23638,-2.3715c0.29943,-0.93659 0.41735,-1.85151 0.35375,-2.74476c-0.06359,-0.89325 -0.28528,-1.71938 -0.66505,-2.47841zM315.29107,126.06897c-0.79922,0.45801 -1.63608,0.73698 -2.51059,0.83693c-0.87451,0.09995 -1.75251,0.00901 -2.63401,-0.2728c-0.86773,-0.27741 -1.63468,-0.72756 -2.30088,-1.35043c-0.66619,-0.62287 -1.19084,-1.3561 -1.57394,-2.19968c-0.3831,-0.84358 -0.60715,-1.76915 -0.67215,-2.77671c-0.065,-1.00756 0.06762,-2.02784 0.39787,-3.06085c0.32145,-1.00546 0.7907,-1.89155 1.40776,-2.65828c0.61706,-0.76673 1.3263,-1.38254 2.12772,-1.84743c0.80142,-0.46489 1.65521,-0.76123 2.56139,-0.889c0.90618,-0.12778 1.8069,-0.04856 2.70217,0.23766c0.92282,0.29503 1.71967,0.75852 2.39055,1.39048c0.67088,0.63196 1.19208,1.36409 1.56361,2.19638c0.37153,0.83229 0.58166,1.74203 0.63041,2.72921c0.04875,0.98718 -0.0876,1.9835 -0.40905,2.98896c-0.34346,1.07433 -0.83157,2.00753 -1.46433,2.7996c-0.63276,0.79207 -1.3716,1.4174 -2.21654,1.87597z" data-paper-data="{&quot;glyphName&quot;:&quot;O&quot;,&quot;glyphIndex&quot;:10,&quot;word&quot;:2}"/><path d="M333.55136,128.07206l-5.90054,-2.99147l-3.38406,6.72288l-0.81253,-0.41194l6.75805,-13.37791l7.71906,3.91343l-0.38252,0.75449l-6.90653,-3.50149l-2.57953,5.088l5.90054,2.99147z" data-paper-data="{&quot;glyphName&quot;:&quot;F&quot;,&quot;glyphIndex&quot;:11,&quot;word&quot;:2}"/><path d="M350.45272,130.95438l-8.1495,11.53129l-0.74314,-0.52692l8.1495,-11.53129l-3.99883,-2.83531l0.50182,-0.70776l4.74197,3.36222l3.98113,2.82276l-0.50182,0.70776z" data-paper-data="{&quot;glyphName&quot;:&quot;T&quot;,&quot;glyphIndex&quot;:12,&quot;word&quot;:2}"/><path d="M360.35484,158.71089l-0.69399,-0.71686l2.9377,-6.16482l-6.21153,2.78312l-0.6789,-0.70127l6.90625,-14.41442l0.66382,0.68569l-6.27196,13.13619l6.22661,-2.76753l3.34935,-6.95579l0.66382,0.68569l-2.7618,5.72283l-3.52524,7.39778l13.30239,-5.87411l0.6789,0.70127z" data-paper-data="{&quot;glyphName&quot;:&quot;W&quot;,&quot;glyphIndex&quot;:13,&quot;word&quot;:2}"/><path d="M379.02069,171.25865l3.95568,-5.36297l-6.48587,1.49738zM384.1174,164.70813l0.41576,0.63519l-9.4995,12.85423l-0.52267,-0.79853l3.92565,-5.36924l-2.88655,-4.41004l-6.46772,1.4855l-0.52267,-0.79853z" data-paper-data="{&quot;glyphName&quot;:&quot;A&quot;,&quot;glyphIndex&quot;:14,&quot;word&quot;:2}"/><path d="M385.58993,182.03188l-6.83339,3.15496l-0.37948,-0.82819l13.61666,-6.26309l1.78898,3.90432c0.24696,0.53898 0.38863,1.08247 0.42499,1.63046c0.03637,0.548 -0.01682,1.06545 -0.15955,1.55235c-0.14273,0.48691 -0.37118,0.9256 -0.68533,1.31609c-0.31416,0.39049 -0.70786,0.69416 -1.18111,0.911c-0.47325,0.21685 -0.96361,0.31826 -1.47107,0.30424c-0.50746,-0.01402 -0.99546,-0.12444 -1.46402,-0.33125c-0.46855,-0.20681 -0.89848,-0.5029 -1.28978,-0.88826c-0.3913,-0.38536 -0.71044,-0.84753 -0.9574,-1.38651l-0.89449,-1.95216l-4.07763,9.16919l-0.4879,-1.06482l4.0686,-9.18891zM391.60417,179.27612l-5.18605,2.37628l1.4095,3.07613c0.18673,0.40752 0.43015,0.76521 0.73027,1.07306c0.30012,0.30785 0.62845,0.5471 0.985,0.71775c0.35655,0.17065 0.73022,0.26586 1.12101,0.28562c0.39079,0.01976 0.77023,-0.05469 1.13832,-0.22335c0.35494,-0.16263 0.65251,-0.3984 0.89272,-0.70728c0.24021,-0.30889 0.41538,-0.65557 0.52551,-1.04006c0.11013,-0.38449 0.14988,-0.7924 0.11926,-1.22373c-0.03063,-0.43133 -0.1393,-0.85076 -0.32603,-1.25828l-0.01807,-0.03944z" data-paper-data="{&quot;glyphName&quot;:&quot;R&quot;,&quot;glyphIndex&quot;:15,&quot;word&quot;:2}"/><path d="M393.95751,204.1576l-1.90277,-6.33598l-6.33598,1.90277l2.22718,7.41622l-0.86626,0.28279l-2.4892,-8.28871l14.3484,-4.33165l2.4892,8.28871l-0.83095,0.24954l-2.22718,-7.41622l-5.44271,1.63451l1.90277,6.33598z" data-paper-data="{&quot;glyphName&quot;:&quot;E&quot;,&quot;glyphIndex&quot;:16,&quot;lastGlyphOfWord&quot;:true,&quot;word&quot;:2}"/></g><g data-paper-data="{&quot;isSecondaryText&quot;:true}" fill-rule="nonzero"><path d="M183.61217,313.4093l-0.92702,-1.11556l-6.17973,5.13527l0.92702,1.11556z" data-paper-data="{&quot;glyphName&quot;:&quot;I&quot;,&quot;glyphIndex&quot;:0,&quot;firstGlyphOfWord&quot;:true,&quot;word&quot;:1}"/><path d="M191.0634,321.48239l-0.99544,-1.02608l-1.36311,1.3224l-2.32514,2.47378l2.15514,-5.3765l-0.99544,-1.02608l-5.75953,5.58752l0.99544,1.02608l1.46797,-1.42413l2.09978,-2.21153l-2.01284,5.23844l0.97364,1.00361z" data-paper-data="{&quot;glyphName&quot;:&quot;N&quot;,&quot;glyphIndex&quot;:1,&quot;word&quot;:1}"/><path d="M196.46971,326.50318l-1.08684,-0.96053l-5.32093,6.02061l1.08684,0.96053z" data-paper-data="{&quot;glyphName&quot;:&quot;I&quot;,&quot;glyphIndex&quot;:2,&quot;word&quot;:1}"/><path d="M200.79089,337.04915c-0.4777,0.63304 -0.94993,0.82574 -1.78288,0.19719c-0.83295,-0.62856 -0.72722,-1.09782 -0.26837,-1.70587l1.87938,-2.49052c0.45885,-0.60805 0.8811,-0.83847 1.71405,-0.20991c0.89126,0.67255 0.77719,1.13553 0.30578,1.76025l1.14947,0.86741c1.07483,-1.42434 0.86088,-2.47474 -0.68841,-3.64385c-1.54929,-1.16911 -2.56181,-1.05731 -3.58636,0.3004l-1.96738,2.60713c-0.9994,1.32439 -0.82929,2.38092 0.69501,3.53117c1.5243,1.15026 2.63693,1.06171 3.69919,-0.34598z" data-paper-data="{&quot;glyphName&quot;:&quot;C&quot;,&quot;glyphIndex&quot;:3,&quot;word&quot;:1}"/><path d="M211.17872,337.47805l-1.22086,-0.78316l-4.33837,6.76304l1.22086,0.78316z" data-paper-data="{&quot;glyphName&quot;:&quot;I&quot;,&quot;glyphIndex&quot;:4,&quot;word&quot;:1}"/><path d="M216.2825,340.52233l-3.81937,7.08098l4.19716,2.26388l0.62418,-1.1572l-2.92975,-1.58026l1.00562,-1.86438l2.38788,1.28799l0.61427,-1.13884l-2.38788,-1.28799l0.98085,-1.81846l2.80117,1.51091l0.59446,-1.1021z" data-paper-data="{&quot;glyphName&quot;:&quot;E&quot;,&quot;glyphIndex&quot;:5,&quot;lastGlyphOfWord&quot;:true,&quot;word&quot;:1}"/><path d="M232.08023,347.9864l-2.72059,7.56032l2.48411,0.89391c1.7968,0.64658 2.81902,0.2714 3.3808,-1.28976l1.10944,-3.08304c0.57592,-1.60043 0.05661,-2.53034 -1.76965,-3.18752zM231.14645,354.80345l1.83375,-5.09586l1.1586,0.41692c1.05059,0.37806 1.07343,0.8077 0.8155,1.52445l-1.05997,2.94558c-0.25793,0.71676 -0.62705,0.97208 -1.60892,0.61875z" data-paper-data="{&quot;glyphName&quot;:&quot;D&quot;,&quot;glyphIndex&quot;:6,&quot;firstGlyphOfWord&quot;:true,&quot;word&quot;:2}"/><path d="M245.22754,352.17404l-1.38223,-0.36492l-4.19737,7.1913l1.43268,0.37824l0.76583,-1.2656l1.98759,0.52474l0.03122,1.47603l1.43268,0.37824zM242.54908,356.84157l1.40486,-2.70497l-0.11343,3.04592z" data-paper-data="{&quot;glyphName&quot;:&quot;A&quot;,&quot;glyphIndex&quot;:7,&quot;lastGlyphOfWord&quot;:true,&quot;word&quot;:2}"/><path d="M261.74818,361.35908l1.9317,-3.04659l-0.41029,2.26489l-0.30202,2.8222l1.43185,0.15323l0.85499,-7.98931l-1.37997,-0.14768l-2.018,3.36268l-1.25035,-3.71245l-1.37997,-0.14768l-0.85499,7.98931l1.43185,0.15323l0.30202,-2.8222l0.07827,-2.30043l1.24327,3.38636z" data-paper-data="{&quot;glyphName&quot;:&quot;M&quot;,&quot;glyphIndex&quot;:8,&quot;firstGlyphOfWord&quot;:true,&quot;word&quot;:3}"/><path d="M271.10365,355.89533l-0.10112,8.04473l4.76841,0.05994l0.01653,-1.3147l-3.32849,-0.04184l0.02662,-2.11813l2.71288,0.0341l0.01626,-1.29383l-2.71288,-0.0341l0.02597,-2.06596l3.18242,0.04l0.01574,-1.2521z" data-paper-data="{&quot;glyphName&quot;:&quot;E&quot;,&quot;glyphIndex&quot;:9,&quot;word&quot;:3}"/><path d="M286.45462,362.15967l-3.09106,0.22438l-0.48653,-6.70249l-1.44666,0.10501l0.58172,8.01385l4.53771,-0.32939z" data-paper-data="{&quot;glyphName&quot;:&quot;L&quot;,&quot;glyphIndex&quot;:10,&quot;word&quot;:3}"/><path d="M296.66643,353.98539l-1.41145,0.22701l0.54185,3.36894l-2.47262,0.39769l-0.54185,-3.36894l-1.43206,0.23033l1.27758,7.94328l1.43206,-0.23033l-0.52694,-3.27622l2.47262,-0.39769l0.52528,3.26591l1.41145,-0.22701z" data-paper-data="{&quot;glyphName&quot;:&quot;H&quot;,&quot;glyphIndex&quot;:11,&quot;word&quot;:3}"/><path d="M306.91741,359.98648c1.8487,-0.4784 2.47127,-1.4048 2.05561,-3.01105l-0.85223,-3.29332c-0.42612,-1.64666 -1.37914,-2.12221 -3.25815,-1.63597c-1.87901,0.48624 -2.42112,1.3487 -1.995,2.99536l0.85223,3.29332c0.41566,1.60625 1.34883,2.13006 3.19754,1.65165zM306.59848,358.75401c-1.01022,0.26142 -1.31196,-0.1132 -1.5028,-0.85066l-0.81564,-3.15189c-0.183,-0.70715 -0.10869,-1.21142 0.90153,-1.47285c1.08094,-0.27972 1.38042,0.12782 1.56341,0.83498l0.81564,3.15189c0.19084,0.73746 0.04808,1.22711 -0.96214,1.48853z" data-paper-data="{&quot;glyphName&quot;:&quot;O&quot;,&quot;glyphIndex&quot;:12,&quot;word&quot;:3}"/><path d="M320.73872,355.50974l-2.69764,-2.27611c0.8063,-0.62423 0.97897,-1.37455 0.57468,-2.49333l-0.14186,-0.39255c-0.57807,-1.59966 -1.67303,-1.95846 -3.4984,-1.29882l-1.90389,0.68801l2.73075,7.55666l1.35431,-0.48941l-0.96108,-2.65955l0.50051,-0.18087l2.4626,2.11695zM315.73537,352.90182l-0.86887,-2.40439l0.57902,-0.20924c1.05008,-0.37947 1.37131,-0.07392 1.6302,0.64249l0.09221,0.25516c0.25889,0.71641 0.10823,1.1592 -0.87316,1.51384z" data-paper-data="{&quot;glyphName&quot;:&quot;R&quot;,&quot;glyphIndex&quot;:13,&quot;lastGlyphOfWord&quot;:true,&quot;word&quot;:3}"/><path d="M333.58985,340.59551l-4.14425,2.23008l3.81239,7.08475l1.2589,-0.67743l-1.62187,-3.014l2.44428,-1.3153l-0.61809,-1.14863l-2.44428,1.3153l-0.94939,-1.76429l2.88536,-1.55265z" data-paper-data="{&quot;glyphName&quot;:&quot;F&quot;,&quot;glyphIndex&quot;:14,&quot;firstGlyphOfWord&quot;:true,&quot;word&quot;:4}"/><path d="M344.91197,343.15153c1.59619,-1.04821 1.8873,-2.12573 0.97657,-3.51259l-1.8673,-2.84349c-0.93365,-1.42175 -1.98904,-1.5651 -3.6114,-0.49971c-1.62236,1.06539 -1.85788,2.05647 -0.92423,3.47822l1.8673,2.84349c0.91074,1.38686 1.96287,1.58228 3.55907,0.53407zM344.21316,342.0874c-0.87224,0.57279 -1.27853,0.31528 -1.69667,-0.32145l-1.78711,-2.72138c-0.40095,-0.61057 -0.49298,-1.1119 0.37925,-1.68469c0.93329,-0.61289 1.34805,-0.32348 1.74901,0.28708l1.78711,2.72138c0.41814,0.63673 0.44065,1.14627 -0.43159,1.71906z" data-paper-data="{&quot;glyphName&quot;:&quot;O&quot;,&quot;glyphIndex&quot;:15,&quot;word&quot;:4}"/><path d="M356.5568,334.46822l-3.28611,-1.2882c0.56285,-0.85028 0.48519,-1.61628 -0.25727,-2.54573l-0.26051,-0.32612c-1.06158,-1.32895 -2.21376,-1.31675 -3.73024,-0.10538l-1.5817,1.26347l5.01482,6.27787l1.12513,-0.89876l-1.76496,-2.20949l0.41581,-0.33215l3.01238,1.21303zM350.9807,333.60696l-1.59563,-1.9975l0.48103,-0.38425c0.87238,-0.69687 1.27477,-0.51079 1.7502,0.08438l0.16933,0.21198c0.47543,0.59517 0.47509,1.06289 -0.34022,1.71417z" data-paper-data="{&quot;glyphName&quot;:&quot;R&quot;,&quot;glyphIndex&quot;:16,&quot;word&quot;:4}"/><path d="M362.13725,326.86675l-1.09231,-3.43803l1.47136,1.77008l1.96789,2.04534l1.03771,-0.99841l-5.57086,-5.79013l-1.00011,0.96224l1.27899,3.70731l-3.64768,-1.42832l-1.00011,0.96224l5.57086,5.79013l1.03771,-0.99841l-1.96789,-2.04534l-1.71199,-1.53856l3.39332,1.22415z" data-paper-data="{&quot;glyphName&quot;:&quot;M&quot;,&quot;glyphIndex&quot;:17,&quot;word&quot;:4}"/><path d="M365.93237,313.89965l-0.93311,1.08307l4.62867,6.92157l0.96717,-1.1226l-0.80272,-1.24252l1.34177,-1.55741l1.34079,0.61798l0.96717,-1.1226zM368.95669,318.3509l-1.81719,-2.4471l2.689,1.43518z" data-paper-data="{&quot;glyphName&quot;:&quot;A&quot;,&quot;glyphIndex&quot;:18,&quot;lastGlyphOfWord&quot;:true,&quot;word&quot;:4}"/></g><g data-paper-data="{&quot;isContainerElementsWrapper&quot;:true}" fill-rule="evenodd"><path d="M151.70853,212.21969c-1.56075,7.94688 -2.34113,16.0688 -2.34113,24.36577c0,17.03847 3.29128,33.33926 9.87385,48.90235c3.68552,8.71383 8.25042,16.84976 13.6947,24.40781h3.78374c-5.89292,-7.87245 -10.78296,-16.40413 -14.67011,-25.59503c-6.42198,-15.18375 -9.63292,-31.08876 -9.63292,-47.71512c0,-8.30189 0.8005,-16.42381 2.40151,-24.36577zM395.18426,212.21969h3.10954c1.56041,7.94688 2.34061,16.0688 2.34061,24.36577c0,17.03851 -3.29101,33.33926 -9.87303,48.90235c-3.68538,8.71314 -8.25076,16.84908 -13.69613,24.40781h-3.78312c5.89374,-7.87382 10.78378,-16.40549 14.67011,-25.59503c6.42208,-15.18444 9.63312,-31.08948 9.63312,-47.71512c0,-8.30196 -0.80071,-16.42398 -2.4011,-24.36577z" data-paper-data="{&quot;isJbensonConnector&quot;:true}"/></g></g></g><g class="watermark-group" style="opacity:0.040000010281801224"><path class="watermark-path" d="M129.52,370.3a11.88,11.88,0,0,1,2.58,5.58,12,12,0,0,1,.11,3,11.81,11.81,0,0,1-.64,2.93,12.34,12.34,0,0,1-1.41,2.72,11.65,11.65,0,0,1-2.13,2.32,12,12,0,0,1-2.64,1.69,13,13,0,0,1-2.91.9,12.47,12.47,0,0,1-3,.12,12.17,12.17,0,0,1-2.93-.64,11.8,11.8,0,0,1-2.72-1.38,12.19,12.19,0,0,1-4-4.79,11.85,11.85,0,0,1-.89-2.92,12.14,12.14,0,0,1-.13-3,11.54,11.54,0,0,1,.64-2.92,11.67,11.67,0,0,1,3.5-5,11.44,11.44,0,0,1,2.67-1.69,11.64,11.64,0,0,1,2.92-.91,10.71,10.71,0,0,1,3-.12,11.68,11.68,0,0,1,5.66,2,11.7,11.7,0,0,1,2.34,2.12m-1.4,8.76a13,13,0,0,1-1.22,2.32,9.68,9.68,0,0,1-1.81,2,7.44,7.44,0,0,1-2.38,1.37,6.17,6.17,0,0,1-5.11-.46,8.73,8.73,0,0,1-3.85-4.58,6.69,6.69,0,0,1-.34-2.66,6.09,6.09,0,0,1,.77-2.47,7.15,7.15,0,0,1,1.75-2.11,9.58,9.58,0,0,1,1.09-.81,8.23,8.23,0,0,1,1.12-.63,8.14,8.14,0,0,1,1.19-.46,12.71,12.71,0,0,1,1.32-.37l2,2.38a12.83,12.83,0,0,0-1.56.17,7.86,7.86,0,0,0-1.23.32,4.5,4.5,0,0,0-1,.49,6.41,6.41,0,0,0-.93.67,4.49,4.49,0,0,0-1.15,1.39,3.87,3.87,0,0,0-.45,1.58,4.12,4.12,0,0,0,.26,1.63,6.11,6.11,0,0,0,2.36,2.82,4.43,4.43,0,0,0,1.57.53,3.91,3.91,0,0,0,1.62-.17,4.71,4.71,0,0,0,1.57-.89,10.5,10.5,0,0,0,.83-.79,5.71,5.71,0,0,0,.65-.93,10.13,10.13,0,0,0,.54-1.14,12.24,12.24,0,0,0,.44-1.49l2,2.33m-14.46,4.55a8.86,8.86,0,0,0,2.78,2.22,9,9,0,0,0,3.29.94,9.15,9.15,0,0,0,3.39-.37,8.68,8.68,0,0,0,3.11-1.69,8.8,8.8,0,0,0,2.22-2.78,9.15,9.15,0,0,0,1-3.29,8.95,8.95,0,0,0-4.83-8.76,9,9,0,0,0-6.73-.57,9,9,0,0,0-5.33,4.47,8.94,8.94,0,0,0-.57,6.71,8.76,8.76,0,0,0,1.7,3.12"/><path class="watermark-path" d="M147,349c-.48.12-1.09.31-1.82.57a24.37,24.37,0,0,0-2.4,1A28.35,28.35,0,0,0,140,352a20.72,20.72,0,0,0-2.71,1.94c-.7.59-1.28,1.11-1.74,1.57a15.07,15.07,0,0,0-1.1,1.22,4.09,4.09,0,0,0-.59.92,2.32,2.32,0,0,0-.22.64,1.16,1.16,0,0,0,0,.47,1.83,1.83,0,0,0,.18.29,1.15,1.15,0,0,0,1,.37,5.54,5.54,0,0,0,1.51-.38q.87-.35,1.95-.9l2.26-1.18q1.2-.65,2.49-1.29c.87-.44,1.73-.83,2.59-1.17a18.94,18.94,0,0,1,2.6-.81,9.27,9.27,0,0,1,2.46-.29,6.25,6.25,0,0,1,2.24.49,5.12,5.12,0,0,1,1.89,1.47,6.35,6.35,0,0,1,1.41,2.61,6,6,0,0,1,.09,2.6,8.3,8.3,0,0,1-.9,2.52,17.79,17.79,0,0,1-1.62,2.37,23.92,23.92,0,0,1-2,2.15c-.72.67-1.41,1.29-2.09,1.87a33.79,33.79,0,0,1-5.33,3.7,32.29,32.29,0,0,1-4.91,2.28l-3.61-4.3a21.38,21.38,0,0,0,5.39-1.87,27.2,27.2,0,0,0,5.4-3.56,21.59,21.59,0,0,0,2.38-2.27,8.67,8.67,0,0,0,1.18-1.7,2.32,2.32,0,0,0,.27-1.19,1.34,1.34,0,0,0-.28-.74,1.21,1.21,0,0,0-1-.42,4.32,4.32,0,0,0-1.55.34,15.77,15.77,0,0,0-2,.88c-.72.37-1.48.77-2.27,1.21l-2.45,1.3c-.85.45-1.7.85-2.56,1.21a22.37,22.37,0,0,1-2.54.86,10,10,0,0,1-2.43.32,5.76,5.76,0,0,1-2.2-.45,5,5,0,0,1-1.89-1.45,6.12,6.12,0,0,1-1.31-2.41,6,6,0,0,1-.1-2.41,8.28,8.28,0,0,1,.81-2.38,14.06,14.06,0,0,1,1.49-2.24,22.37,22.37,0,0,1,1.85-2.05q1-1,2-1.77c.7-.59,1.44-1.15,2.23-1.7s1.62-1.06,2.44-1.53,1.63-.91,2.43-1.3,1.58-.75,2.3-1L147,349"/><path class="watermark-path" d="M186.76,337.57l-10.6-12.63,3.92,18.24-4.66,3.91-17.27-7,10.6,12.63-4.86,4.07-15.09-18,6.59-5.54,18.69,7.52-4.15-19.71,6.57-5.52,15.09,18-4.83,4.05"/><path class="watermark-path" d="M208.84,313.24l-10,8.42,1.16,4.82L194.56,331l-5.68-25.89,5.42-4.55,24.51,10.09-5.42,4.55-4.55-2m-11.23,3.45,6.57-5.52-8.83-3.87,2.26,9.39"/><path class="watermark-path" d="M227.49,281.38c-.48.12-1.09.31-1.82.57a24.37,24.37,0,0,0-2.4,1,26.11,26.11,0,0,0-2.7,1.47,20.72,20.72,0,0,0-2.71,1.94c-.7.59-1.28,1.11-1.74,1.57a13.39,13.39,0,0,0-1.1,1.22,4.29,4.29,0,0,0-.59.91,2.48,2.48,0,0,0-.22.65,1.16,1.16,0,0,0,0,.47,1.83,1.83,0,0,0,.18.29,1.15,1.15,0,0,0,1,.37,5.54,5.54,0,0,0,1.51-.38q.87-.34,2-.9l2.26-1.18q1.2-.64,2.49-1.29c.87-.44,1.73-.83,2.59-1.17a18.94,18.94,0,0,1,2.6-.81,9.27,9.27,0,0,1,2.46-.29,6.08,6.08,0,0,1,2.24.49,5.09,5.09,0,0,1,1.89,1.46,6.47,6.47,0,0,1,1.41,2.61,6.07,6.07,0,0,1,.09,2.61,8.3,8.3,0,0,1-.9,2.52,16.32,16.32,0,0,1-1.63,2.36,21.41,21.41,0,0,1-2,2.16c-.72.67-1.41,1.29-2.1,1.86a33.36,33.36,0,0,1-5.32,3.71,31.92,31.92,0,0,1-4.92,2.28l-3.6-4.3a21.38,21.38,0,0,0,5.39-1.87,27.2,27.2,0,0,0,5.4-3.56,21.59,21.59,0,0,0,2.38-2.27,8.67,8.67,0,0,0,1.18-1.7A2.32,2.32,0,0,0,231,293a1.34,1.34,0,0,0-.28-.74,1.21,1.21,0,0,0-1-.42,4.32,4.32,0,0,0-1.55.34,16.54,16.54,0,0,0-2,.88c-.71.37-1.47.77-2.26,1.21l-2.46,1.3c-.84.44-1.7.85-2.55,1.21a24.53,24.53,0,0,1-2.54.86A10,10,0,0,1,214,298a5.76,5.76,0,0,1-2.2-.45,5,5,0,0,1-1.89-1.45,6.12,6.12,0,0,1-1.31-2.41,5.78,5.78,0,0,1-.1-2.41,8,8,0,0,1,.81-2.38,14.61,14.61,0,0,1,1.49-2.25,22.26,22.26,0,0,1,1.85-2q1-1,2-1.77c.7-.59,1.44-1.15,2.23-1.7s1.62-1.06,2.44-1.53,1.63-.91,2.43-1.31,1.58-.74,2.3-1l3.5,4.16"/><path class="watermark-path" d="M261.64,274.74l-6.29-7.5L243,277.61l6.3,7.5-4.86,4.07-15.09-18,4.85-4.08,5.49,6.55L252,263.3l-5.49-6.55,4.86-4.07,15.09,18-4.86,4.08"/><path class="watermark-path" d="M272.18,265.9l-15.09-18,4.86-4.08,15.09,18-4.86,4.08"/><path class="watermark-path" d="M299.65,242.85l-22.51-2.18L287.51,253l-4.85,4.08-15.1-18,5.28-4.43,22.56,2.22L285,224.5l4.83-4.06,15.09,18-5.26,4.42"/><path class="watermark-path" d="M306.68,205.52a31.88,31.88,0,0,1,5.29-3.66,34.48,34.48,0,0,1,5.14-2.35l3.69,4.39a20.77,20.77,0,0,0-2.37.61,20.47,20.47,0,0,0-2.61,1,25.12,25.12,0,0,0-2.76,1.49,23.9,23.9,0,0,0-2.8,2,20.42,20.42,0,0,0-2.8,2.77,12.77,12.77,0,0,0-1.64,2.52,7,7,0,0,0-.68,2.24,6,6,0,0,0,.66,3.64,8.16,8.16,0,0,0,.94,1.38,9.12,9.12,0,0,0,1.08,1.07,6.39,6.39,0,0,0,1.47.91,6.73,6.73,0,0,0,1.88.48,6.54,6.54,0,0,0,2.28-.18,11.67,11.67,0,0,0,2.74-1.07,19.38,19.38,0,0,0,3.18-2.22c.57-.48,1.06-.92,1.46-1.31a14.57,14.57,0,0,0,1-1.13,11.46,11.46,0,0,0,.81-1.05l.74-1.09-1.82-2.17-5.45,4.57-3.31-3.94,10.31-8.65,7.71,9.19a29,29,0,0,1-1.67,2.43q-1,1.26-2.1,2.52c-.74.84-1.5,1.65-2.3,2.44s-1.58,1.5-2.33,2.14a31,31,0,0,1-3.59,2.61,22.55,22.55,0,0,1-3.64,1.83,15.64,15.64,0,0,1-3.63.89,10.72,10.72,0,0,1-3.49-.15,10.45,10.45,0,0,1-3.28-1.33,12.54,12.54,0,0,1-3-2.67,12,12,0,0,1-2.08-3.44,10.45,10.45,0,0,1-.71-3.5,11.14,11.14,0,0,1,.51-3.51,15.72,15.72,0,0,1,1.56-3.43,21.62,21.62,0,0,1,2.42-3.28,30.3,30.3,0,0,1,3.15-3"/><path class="watermark-path" d="M336.91,211.59l-15.1-18,4.86-4.08,11.79,14,13.13-11,3.31,3.94-18,15.1"/><path class="watermark-path" d="M374.54,164.71a12.28,12.28,0,0,1,2.59,4.81,10.44,10.44,0,0,1,0,5,14.62,14.62,0,0,1-2.33,5,25.55,25.55,0,0,1-4.56,4.85,26.07,26.07,0,0,1-5.6,3.67,14.79,14.79,0,0,1-5.38,1.43,10.43,10.43,0,0,1-4.94-.89,13.24,13.24,0,0,1-6.87-8.18,10.48,10.48,0,0,1,0-5,14.51,14.51,0,0,1,2.36-5,25.23,25.23,0,0,1,4.57-4.89,25,25,0,0,1,5.59-3.64,14.45,14.45,0,0,1,5.35-1.43,10.31,10.31,0,0,1,4.93.92,12.22,12.22,0,0,1,4.28,3.38m-4.91,4.11a8.36,8.36,0,0,0-2-1.72,5.5,5.5,0,0,0-2.65-.85,7.72,7.72,0,0,0-3.32.57,14.49,14.49,0,0,0-4,2.52,16.72,16.72,0,0,0-2.38,2.4,10.15,10.15,0,0,0-1.39,2.24,6.71,6.71,0,0,0-.56,2.1,5.69,5.69,0,0,0,.1,1.9,6.21,6.21,0,0,0,.61,1.69,9.85,9.85,0,0,0,1,1.44,10.48,10.48,0,0,0,1.26,1.23,6.67,6.67,0,0,0,1.57.92,6.1,6.1,0,0,0,1.85.41,6.8,6.8,0,0,0,2.15-.2,11.06,11.06,0,0,0,2.45-1,17.67,17.67,0,0,0,2.77-1.94,14.39,14.39,0,0,0,3.18-3.52,7.74,7.74,0,0,0,1.14-3.17,5.54,5.54,0,0,0-.37-2.74,8.52,8.52,0,0,0-1.36-2.3"/><path class="watermark-path" d="M382.66,141.76A32.3,32.3,0,0,1,388,138.1a34.12,34.12,0,0,1,5.15-2.35l3.69,4.4a19.62,19.62,0,0,0-2.37.6,22.08,22.08,0,0,0-2.61,1,26,26,0,0,0-2.77,1.49,23.9,23.9,0,0,0-2.8,2,21,21,0,0,0-2.8,2.78,13.19,13.19,0,0,0-1.64,2.51,7.29,7.29,0,0,0-.68,2.24,6.36,6.36,0,0,0,.06,2,5.8,5.8,0,0,0,.61,1.68,8.12,8.12,0,0,0,.93,1.38,9.16,9.16,0,0,0,1.08,1.08,6.56,6.56,0,0,0,1.48.9,6,6,0,0,0,1.87.48,6.76,6.76,0,0,0,2.28-.17,12,12,0,0,0,2.74-1.08,18.57,18.57,0,0,0,3.18-2.22c.58-.48,1.06-.92,1.46-1.31s.75-.77,1.05-1.12.57-.72.81-1.06l.73-1.09-1.82-2.17-5.45,4.57-3.3-3.94,10.3-8.65,7.71,9.19a29,29,0,0,1-1.67,2.43q-1,1.26-2.1,2.52c-.73.84-1.5,1.66-2.3,2.44s-1.57,1.5-2.33,2.14a31,31,0,0,1-3.59,2.61,22.15,22.15,0,0,1-3.64,1.83,15.56,15.56,0,0,1-3.62.89,11,11,0,0,1-3.49-.14,10.84,10.84,0,0,1-3.28-1.33,12.82,12.82,0,0,1-3-2.68,12.12,12.12,0,0,1-2.08-3.43A10.71,10.71,0,0,1,375,155a11.18,11.18,0,0,1,.51-3.51,15.51,15.51,0,0,1,1.57-3.43,21.44,21.44,0,0,1,2.42-3.28,30.19,30.19,0,0,1,3.14-3"/><path class="watermark-path" d="M428.63,119.31a12.26,12.26,0,0,1,2.59,4.82,10.44,10.44,0,0,1,0,5,14.53,14.53,0,0,1-2.34,5,25.29,25.29,0,0,1-4.56,4.86,26,26,0,0,1-5.59,3.67,14.84,14.84,0,0,1-5.38,1.43,10.61,10.61,0,0,1-4.95-.89,12.15,12.15,0,0,1-4.3-3.37,12,12,0,0,1-2.56-4.81,10.48,10.48,0,0,1,0-5,14.39,14.39,0,0,1,2.35-5,27.89,27.89,0,0,1,10.16-8.53,14.49,14.49,0,0,1,5.36-1.43,10.27,10.27,0,0,1,4.92.92,12.21,12.21,0,0,1,4.28,3.37m-4.91,4.12a8.17,8.17,0,0,0-2-1.72,5.58,5.58,0,0,0-2.65-.86,7.86,7.86,0,0,0-3.31.58,14.49,14.49,0,0,0-4,2.52,16.21,16.21,0,0,0-2.38,2.4,9.85,9.85,0,0,0-1.4,2.24,7,7,0,0,0-.56,2.1,6,6,0,0,0,.1,1.9,6.23,6.23,0,0,0,.62,1.69,8.49,8.49,0,0,0,1,1.44,9.18,9.18,0,0,0,1.26,1.23,6.67,6.67,0,0,0,1.57.92,6,6,0,0,0,1.84.41,6.86,6.86,0,0,0,2.16-.2,11.26,11.26,0,0,0,2.45-1,17.62,17.62,0,0,0,2.76-1.94,14.67,14.67,0,0,0,3.19-3.52,7.71,7.71,0,0,0,1.13-3.17,5.53,5.53,0,0,0-.36-2.74,8.55,8.55,0,0,0-1.37-2.3"/></g></svg>